<?xml version="1.0" encoding="UTF-8"?>
<!DOCTYPE svg PUBLIC "-//W3C//DTD SVG 1.1//EN" "http://www.w3.org/Graphics/SVG/1.1/DTD/svg11.dtd">
<!-- Creator: CorelDRAW X7 -->
<svg xmlns="http://www.w3.org/2000/svg" xml:space="preserve" width="210mm" height="297mm" version="1.1" shape-rendering="geometricPrecision" text-rendering="geometricPrecision" image-rendering="optimizeQuality" fill-rule="evenodd" clip-rule="evenodd"
viewBox="0 0 21000 29700"
 xmlns:xlink="http://www.w3.org/1999/xlink">
 <g id="Слой_x0020_1">
  <metadata id="CorelCorpID_0Corel-Layer"/>
  <g id="_2126113804096">
   <g>
    <path fill="#FEFEFE" d="M20601 10023c0,-991 -798,-1762 -1761,-1762l-3522 0 2311 -3329c165,-248 110,-605 -137,-771 -248,-165 -606,-110 -771,138l-2724 3962 -6494 0 -2724 -3962c-165,-248 -523,-303 -771,-138 -247,166 -302,523 -137,771l2311 3329 -3522 0c-991,0 -1761,798 -1761,1762 0,853 605,1568 1403,1733l1624 7265c192,908 1045,1568 1981,1568l9741 0c935,0 1761,-660 1981,-1568l1624 -7265c770,-165 1348,-880 1348,-1733zm-4100 8777c-83,413 -468,716 -908,716l-9714 0c-440,0 -798,-303 -908,-716l-1568 -6989 14639 0 -1541 6989zm2339 -8090l-16180 0c-358,0 -660,-302 -660,-660 0,-358 302,-660 660,-660l4265 0 275 412c110,166 275,248 441,248 110,0 220,-27 302,-110 193,-138 275,-358 220,-550l5063 0c-27,220 55,440 221,550 82,55 192,110 302,110 165,0 358,-82 441,-248l275 -412 4265 0c357,0 660,302 660,660 0,358 -192,660 -550,660z"/>
    <path fill="#FEFEFE" d="M7420 13545c-82,-275 -412,-441 -688,-358 -275,83 -440,385 -357,660 55,193 495,2394 770,3825 55,275 275,440 551,440 27,0 82,0 110,0 302,-55 495,-357 440,-660 -798,-3797 -826,-3852 -826,-3907z"/>
    <path fill="#FEFEFE" d="M14795 13187c-303,-110 -605,55 -688,358 -28,55 -28,110 -798,3935 -55,302 138,577 440,660 28,0 83,0 110,0 248,0 496,-193 551,-440 275,-1431 715,-3632 770,-3825 28,-275 -110,-578 -385,-688z"/>
    <path fill="#FEFEFE" d="M10750 13270c-303,0 -550,247 -550,550l0 3632c0,303 247,550 550,550 303,0 550,-247 550,-550l0 -3632c0,-303 -247,-550 -550,-550z"/>
   </g>
  </g>
 </g>
</svg>
