<svg width="980" height="806" xmlns="http://www.w3.org/2000/svg" preserveAspectRatio="xMidYMid meet">
 <metadata>Created by potrace 1.15, written by Peter Selinger 2001-2017</metadata>

 <g>
  <title>background</title>
  <rect fill="none" id="canvas_background" height="402" width="582" y="-1" x="-1"/>
 </g>
 <g>
  <title>Layer 1</title>
  <g id="svg_1" stroke="#ffffff" fill="white" transform="translate(0,806) scale(0.10000000149011612,-0.10000000149011612) ">
   <path stroke="#ffffff" id="svg_2" d="m275,8036c-108,-34 -195,-110 -242,-211l-28,-60l0,-2855l0,-2855l31,-65c40,-83 102,-145 184,-184l65,-31l2243,-3l2242,-2l0,-188c0,-103 5,-204 10,-224c33,-118 207,-118 240,0c5,20 10,121 10,225l0,187l2223,0c2467,0 2276,-5 2382,66c60,40 97,85 133,162l27,57l0,2855l0,2855l-28,60c-37,79 -114,156 -191,192l-61,28l-4600,2c-3696,1 -4608,-1 -4640,-11zm9213,-256c67,-41 62,190 62,-2870c0,-3060 5,-2829 -62,-2870c-33,-20 -37,-20 -4588,-20c-4551,0 -4555,0 -4588,20c-67,41 -62,-190 -62,2870c0,3060 -5,2829 62,2870c33,20 37,20 4588,20c4551,0 4555,0 4588,-20z"/>
   <path stroke="#ffffff" id="svg_3" d="m831,7282c-19,-9 -44,-30 -55,-45l-21,-28l-3,-2277c-2,-1528 0,-2289 7,-2312c6,-20 24,-49 41,-65l31,-30l4057,-2c4007,-3 4057,-3 4089,17c18,10 40,31 50,47c17,26 18,127 18,2324l0,2298l-21,28c-11,15 -36,36 -55,45c-32,17 -247,18 -4069,18c-3822,0 -4037,-1 -4069,-18zm7959,-2377l0,-2135l-3890,0l-3890,0l0,2135l0,2135l3890,0l3890,0l0,-2135z"/>
   <path stroke="#ffffff" id="svg_4" d="m3360,991c-157,-50 -278,-175 -326,-336c-15,-50 -18,-100 -18,-300c-1,-267 3,-291 59,-325c32,-20 47,-20 1825,-20c1778,0 1793,0 1825,20c55,34 60,59 59,315c0,190 -3,240 -18,290c-53,177 -174,306 -333,355c-64,20 -90,20 -1542,19c-1382,0 -1480,-1 -1531,-18zm3001,-243c51,-15 114,-69 142,-122c19,-36 22,-59 25,-204l4,-162l-1631,0l-1631,0l0,158c0,136 3,163 21,202c27,60 54,88 114,116l50,24l1434,0c1059,0 1444,-3 1472,-12z"/>
  </g>
 </g>
</svg>