<svg width="100" height="100" xmlns="http://www.w3.org/2000/svg">

 <g>
  <title>background</title>
  <rect fill="none" id="canvas_background" height="402" width="582" y="-1" x="-1"/>
 </g>
 <g>
  <title>Layer 1</title>
  <path fill="white" stroke="#ffffff" id="svg_1" d="m88,15c-3.9,0 -7,3.1 -7,7c0,1.8 0.7,3.5 1.8,4.7l-17.2,29.8c-0.8,-0.3 -1.7,-0.5 -2.6,-0.5c-1.8,0 -3.4,0.7 -4.7,1.8l-18.5,-12c0.1,-0.6 0.2,-1.2 0.2,-1.8c0,-3.9 -3.1,-7 -7,-7s-7,3.1 -7,7c0,1.6 0.6,3.1 1.5,4.3l-13.6,23c-0.6,-0.2 -1.2,-0.3 -1.9,-0.3c-3.9,0 -7,3.1 -7,7s3.1,7 7,7s7,-3.1 7,-7c0,-1.8 -0.7,-3.4 -1.7,-4.6l13.5,-22.8c0.7,0.2 1.5,0.4 2.2,0.4c1.8,0 3.4,-0.7 4.7,-1.8l18.5,12.1c-0.1,0.5 -0.2,1.1 -0.2,1.7c0,3.9 3.1,7 7,7s7,-3.1 7,-7c0,-1.5 -0.5,-2.9 -1.3,-4l17.5,-30.2c0.6,0.1 1.1,0.2 1.7,0.2c3.9,0 7,-3.1 7,-7s-3,-7 -6.9,-7zm-76,66c-1.7,0 -3,-1.3 -3,-3s1.3,-3 3,-3s3,1.3 3,3s-1.3,3 -3,3zm21,-34c-1.7,0 -3,-1.3 -3,-3s1.3,-3 3,-3s3,1.3 3,3s-1.3,3 -3,3zm30,19c-1.7,0 -3,-1.3 -3,-3s1.3,-3 3,-3s3,1.3 3,3s-1.3,3 -3,3zm25,-41c-1.7,0 -3,-1.3 -3,-3s1.3,-3 3,-3s3,1.3 3,3s-1.3,3 -3,3z"/>
 </g>
</svg>