<svg width="1000" height="1000" xmlns="http://www.w3.org/2000/svg">
 <metadata>Svg Vector Icons : http://www.onlinewebfonts.com/icon</metadata>

 <g>
  <title>background</title>
  <rect fill="none" id="canvas_background" height="402" width="582" y="-1" x="-1"/>
 </g>
 <g>
  <title>Layer 1</title>
  <g stroke="#ffffff" fill="white" id="svg_2">
   <path stroke="#ffffff" id="svg_3" d="m812.7,974.7c0,-8.5 -6.9,-15.3 -15.3,-15.3l-551.2,0c-8.5,0 -15.3,6.9 -15.3,15.3s6.9,15.3 15.3,15.3l551.3,0c8.4,0 15.2,-6.9 15.2,-15.3zm-634.7,-678.2c-12.8,8.5 -32.2,34.4 -13.8,71.2c15.3,30.5 47.2,67.9 81.1,77.8c17.3,5.1 34.3,3 49.2,-6c33.7,-20.2 73.4,-47.4 90.3,-59.1c21.3,10.7 48.1,13 75.3,6c0.1,0 0.2,-0.1 0.4,-0.1c-1.6,50.6 -18.7,82.1 -102.4,159.9c-74.6,69.2 -118.9,160.2 -118.4,243.3c0.3,54.5 20.2,101.4 57.6,135.3c2.8,2.6 6.5,4 10.3,4l428.8,0c8.5,0 15.3,-6.9 15.3,-15.3s-6.9,-15.3 -15.3,-15.3l-422.9,0c-28.1,-27.7 -43.1,-65.2 -43.3,-108.9c-0.4,-73.6 41.3,-158.2 108.6,-220.7c89.3,-82.9 112.4,-122.1 112.4,-191c0,-1.3 -0.4,-2.4 -0.7,-3.5c16.8,-9 31.2,-21 41.1,-35.4c12.4,-18.1 39.1,-64.5 19.3,-105.5c-3.7,-7.6 -12.8,-10.8 -20.5,-7.1c-7.6,3.7 -10.8,12.8 -7.1,20.5c8.9,18.5 2.6,46.5 -17,74.9c-11.3,16.4 -31.4,29.7 -53.9,35.4c-22.9,5.8 -44.6,3.3 -59.8,-7.1c-5.3,-3.6 -12.3,-3.6 -17.5,0.1c-0.6,0.4 -54.4,38.3 -96.4,63.5c-7.7,4.6 -15.8,5.6 -24.9,2.9c-23.7,-6.9 -49.8,-37.1 -62.2,-62c-10.1,-20.2 0.2,-29.8 4.9,-33.2c105.6,-91.4 158.6,-186.1 160.8,-190.2c2,-3.7 2.4,-8.1 1.1,-12.2c-0.2,-0.5 -10.7,-32.6 -16.5,-62.3c32,19.3 87.1,46.2 144.5,46.2c79.7,0 265.2,29.8 265.2,305.5c0,1.5 -0.3,151.4 -60.3,316.3c-2.9,7.9 1.2,16.7 9.2,19.6c1.7,0.6 3.5,0.9 5.2,0.9c6.2,0 12.1,-3.9 14.4,-10.1c61.9,-169.9 62.2,-320.5 62.2,-326.8c-0.2,-311.7 -226.6,-336 -296,-336c-76.8,0 -153.5,-58.3 -154.2,-58.9c-4.7,-3.5 -10.9,-4.1 -16.1,-1.6c-5.2,2.6 -8.5,7.9 -8.5,13.7c0,30 14.2,78.6 19.8,96.4c-12.9,21.5 -63.4,100.6 -149.3,174.9zm496.5,-239.3c-49,-33 -103.8,-47.2 -183.3,-47.2c-8.5,0 -15.3,6.9 -15.3,15.3c0,8.5 6.9,15.3 15.3,15.3c72.9,0 122.6,12.5 166.2,41.9c70.9,47.8 155.4,143.1 155.4,325.6c0,44.4 0,105.3 -30.2,226c-2,8.2 2.9,16.5 11.1,18.6c1.3,0.3 2.5,0.5 3.7,0.5c6.9,0 13.1,-4.6 14.9,-11.6c31.1,-124.3 31.1,-187.4 31.1,-233.4c0,-196 -91.9,-299.1 -168.9,-351z"/>
  </g>
 </g>
</svg>