<svg width="674" height="980" xmlns="http://www.w3.org/2000/svg" preserveAspectRatio="xMidYMid meet">
 <metadata>Created by potrace 1.15, written by Peter Selinger 2001-2017</metadata>

 <g>
  <title>background</title>
  <rect fill="none" id="canvas_background" height="402" width="582" y="-1" x="-1"/>
 </g>
 <g>
  <title>Layer 1</title>
  <path fill="white" stroke="#ffffff" id="svg_2" d="m315.44682,0.599985c-98.114561,7.8 -189.828172,57.400001 -248.736915,134.700002c-45.706783,59.900001 -69.110257,134.700002 -66.409856,212.200003c3.30049,96.600001 39.505863,173.400003 112.516698,238.400004c23.003414,20.5 57.508535,62.600001 64.809618,79.000001c5.000742,11.2 5.500816,15 6.20092,45.600001c0.600089,28.6 0.700104,29.1 3.200475,34.600001c1.500223,3.1 4.300638,7.4 6.300935,9.6c7.601128,8.5 5.200772,7.8 142.021077,37.900001c90.713463,19.9 127.018851,27.4 129.519222,27c7.201069,-1.1 12.501855,-7.2 12.501855,-14.4c0,-5.9 -3.000445,-11.1 -7.601128,-13.6c-1.800267,-0.9 -30.104468,-7.5 -62.809321,-14.7c-32.704854,-7.1 -66.509871,-14.5 -75.011132,-16.4c-8.501262,-1.9 -35.10521,-7.7 -59.008757,-13c-23.903547,-5.2 -46.406887,-10.2 -50.007422,-11c-3.700549,-0.8 -7.101054,-2.2 -7.801158,-3.2c-1.100163,-1.4 -1.300193,-4.8 -0.800119,-16.3c0.700104,-18.3 -0.700104,-39.100001 -3.400505,-49.500001c-3.800564,-15.1 -13.502004,-32 -29.604394,-52.100001c-12.501855,-15.5 -29.504379,-34.500001 -38.805759,-43.400001c-46.806947,-44.500001 -63.109366,-65.000001 -81.612112,-102.500002c-21.803236,-44.200001 -31.304646,-89.600001 -29.704408,-142.000002c1.400208,-45.300001 10.601573,-84.300001 29.104319,-123.000002c45.406739,-95.000001 143.621315,-162.500002 251.037256,-172.600003c17.502598,-1.6 52.207748,-0.7 69.110257,1.9c82.81229,12.8 155.023007,55.000001 203.030131,118.700002c30.304497,40.300001 48.407184,84.200001 56.508386,137.000002c2.800416,17.7 3.800564,58.200001 2.100312,77.200001c-5.600831,60.700001 -24.903696,109.800002 -61.209084,155.300002c-9.401395,11.8 -35.405254,38.300001 -44.206561,45.200001c-8.501262,6.6 -36.005343,37.500001 -50.407481,56.700001c-18.602761,24.8 -24.903696,40.900001 -26.003859,66.400001c-0.300045,7.6 -1.000148,14 -1.400208,14.3c-0.400059,0.2 -30.604542,-6.6 -67.10996,-15.2c-47.607065,-11.2 -67.410004,-15.4 -70.110405,-15.1c-7.901173,1.1 -12.701885,6.9 -12.701885,15.5c0,4.7 0.400059,5.7 3.800564,9.3l3.800564,4.1l65.409707,15.4c36.005343,8.5 68.210123,15.9 71.510613,16.5c14.302123,2.5 27.104022,-4.2 33.004898,-17.2c2.300341,-5.2 2.800416,-8.2 3.600534,-20.7c1.200178,-17.7 2.800416,-25 7.301084,-34.000001c9.801455,-19.5 39.505863,-54.900001 66.409856,-79.500001c58.508683,-53.200001 93.213834,-114.600002 105.1156,-186.200003c10.701588,-64.000001 3.900579,-132.200002 -18.902805,-189.000003c-45.106694,-112.900002 -150.222294,-191.400003 -276.541041,-206.500003c-9.30138,-1.2 -49.207303,-2.1 -58.008609,-1.4z"/>
  <path fill="white" stroke="#ffffff" id="svg_3" d="m209.631116,818.399998c-5.100757,1.9 -6.700994,3.4 -8.901321,8.4c-3.10046,7 -0.300045,15.7 6.20092,19.2c3.10046,1.7 248.936944,57.000001 253.237583,57.000001c11.301677,0 18.602761,-14 12.001781,-22.9c-4.700698,-6.3 2.500371,-4.3 -111.216505,-30c-14.602167,-3.3 -41.606175,-9.4 -60.008906,-13.6c-71.810657,-16.3 -86.31281,-19.5 -86.912899,-19.5c-0.300045,0.1 -2.300341,0.7 -4.400653,1.4z"/>
  <path fill="white" stroke="#ffffff" id="svg_4" d="m222.132971,906.999999c-9.70144,5.9 -9.601425,20.5 0.300045,26.1c3.10046,1.8 203.030131,46.900001 207.530799,46.900001c3.900579,0 10.101499,-4.1 12.101796,-8c4.600683,-8.6 0,-19.6 -9.30138,-22.1c-2.100312,-0.5 -19.902954,-4.6 -39.605878,-9c-19.602909,-4.4 -54.808134,-12.3 -78.211607,-17.5c-23.403473,-5.2 -51.407629,-11.5 -62.309247,-14c-22.10328,-4.9 -25.80383,-5.2 -30.504527,-2.4z"/>
 </g>
</svg>