<?xml version="1.0" encoding="UTF-8"?>
<svg xmlns="http://www.w3.org/2000/svg" xmlns:xlink="http://www.w3.org/1999/xlink" width="256pt" height="256pt" viewBox="0 0 256 256" version="1.1">
<g id="surface183965">
<path style=" stroke:none;fill-rule:nonzero;fill:rgb(100%,100%,100%);fill-opacity:1;" d="M 172 32 C 157.3125 32 143.96875 38.125 134.5 48 L 56 48 C 42.84375 48 32 58.84375 32 72 L 32 200 C 32 213.15625 42.84375 224 56 224 L 184 224 C 197.15625 224 208 213.15625 208 200 L 208 124.5 C 216.25 112.625 224 100.4375 224 84 C 224 55.375 200.625 32 172 32 Z M 172 48 C 191.96875 48 208 64.03125 208 84 C 208 96.3125 201.84375 105.65625 193 118.25 C 185.9375 128.3125 178.15625 141.28125 172 157.25 C 165.84375 141.28125 158.0625 128.3125 151 118.25 C 142.15625 105.65625 136 96.3125 136 84 C 136 64.03125 152.03125 48 172 48 Z M 56 64 L 124 64 C 121.40625 70.15625 120 76.9375 120 84 C 120 96.125 124.25 105.875 129.75 115 L 48 196.5 L 48 72 C 48 67.46875 51.46875 64 56 64 Z M 80 72 C 66.75 72 56 82.75 56 96 C 56 109.25 66.75 120 80 120 C 93.25 120 104 109.25 104 96 L 80 96 L 80 104 L 93.75 104 C 90.96875 108.75 85.90625 112 80 112 C 71.1875 112 64 104.8125 64 96 C 64 87.1875 71.1875 80 80 80 C 84.40625 80 88.34375 81.84375 91.25 84.75 L 97 79 C 92.65625 74.65625 86.625 72 80 72 Z M 172 72 C 165.375 72 160 77.375 160 84 C 160 90.625 165.375 96 172 96 C 178.625 96 184 90.625 184 84 C 184 77.375 178.625 72 172 72 Z M 138.75 128.5 C 147.40625 140.84375 156.28125 153.84375 161.25 173 C 161.34375 173.34375 161.625 174.4375 161.75 175 L 127 140.25 Z M 192 149.5 L 192 200 C 192 203.25 190.21875 206 187.5 207.25 L 190.75 204 L 170.5 183.75 C 171.03125 183.8125 171.5625 184 172 184 C 173.78125 184 176.3125 183.46875 178.25 182 C 180.1875 180.53125 181.03125 178.78125 181.5 177.5 C 182.46875 174.9375 182.53125 173.78125 182.75 173 C 185.09375 163.9375 188.3125 156.375 192 149.5 Z M 115.75 151.75 L 172 208 L 59.5 208 Z M 115.75 151.75 "/>
</g>
</svg>
