<svg width="100" height="100" xmlns="http://www.w3.org/2000/svg">

 <g>
  <title>background</title>
  <rect fill="none" id="canvas_background" height="402" width="582" y="-1" x="-1"/>
 </g>
 <g>
  <title>Layer 1</title>
  <path fill="white" stroke="#ffffff" id="svg_1" d="m93.8,93.8c0.1,0 0.1,-0.1 0.2,-0.1c0,0 0.1,0 0.1,-0.1c0.2,-0.2 0.4,-0.4 0.6,-0.6c0,0 0,-0.1 0.1,-0.1c0.1,-0.1 0.1,-0.2 0.1,-0.3c0,0 0,-0.1 0,-0.1c0,-0.1 0.1,-0.3 0.1,-0.5c0,0 0,0 0,0c0,0 0,-0.1 0,-0.1c0,-0.1 0,-0.3 -0.1,-0.4c0,0 0,0 0,-0.1l-7.8,-26.4c-0.2,-0.6 -0.5,-1.2 -1,-1.7l-56.3,-56.1c-1.6,-1.6 -4.1,-1.6 -5.7,0l-16.1,16.1c-1.6,1.6 -1.6,4.1 0,5.6l56.2,56.1c0.5,0.5 1.1,0.8 1.7,1l13.3,4l-72.2,0c-1.1,0 -2,0.9 -2,2c0,1.1 0.9,2 2,2l86,0c0.1,0 0.3,0 0.4,0c0.1,0 0.1,0 0.2,-0.1c0.1,0 0.1,0 0.2,-0.1zm-3.8,-4.8l-21.6,-6.4l1.1,-4.5l7.1,0.7c0.1,0 0.2,0 0.3,0c0.8,0 1.5,-0.3 2.1,-0.9c0.6,-0.6 1,-1.5 0.9,-2.4l-0.7,-7.1l4.5,-1.1l6.3,21.7zm-12.4,-24.2l-40.3,-40.2l2.2,-2.2l41.6,41.6l-3.5,0.8zm-43.1,-37.3l40.6,40.5l0.7,6.8l-6.9,-0.7l-40.6,-40.5l6.2,-6.1zm-9,8.9l40.3,40.2l-0.9,3.5l-41.6,-41.5l2.2,-2.2zm1.5,-26.4l9.7,9.7l-16.2,16.1l-9.7,-9.7l16.2,-16.1z"/>
 </g>
</svg>